<svg width="41" height="37" viewBox="0 0 41 37" fill="none" xmlns="http://www.w3.org/2000/svg">
<path fill-rule="evenodd" clip-rule="evenodd" d="M40.4979 19.9989C40.4979 8.95452 31.5434 0 20.499 0V0.00211786C9.45455 0.00211786 0.500031 8.95664 0.500031 20.001V25.4513H4.13774V19.9947C4.13774 10.9597 11.4619 3.63347 20.499 3.63347C29.5339 3.63347 36.8602 10.9576 36.8602 19.9947V25.4493H35.0455C32.0346 25.4493 29.5911 27.8928 29.5911 30.9037C29.5911 33.9147 32.0346 36.3582 35.0455 36.3582C38.0565 36.3582 40.5 33.9147 40.5 30.9037V25.4493H40.4979V19.9989ZM20.5007 36.3584L18.6839 32.7228L15.0484 30.904L18.6839 29.0872L20.5007 25.4516L22.3195 29.0872L25.9551 30.904L22.3195 32.7228L20.5007 36.3584ZM20.4987 14.5402C23.5118 14.5402 25.9532 16.9816 25.9532 19.9946V21.8177H22.3155V19.9946C22.3155 18.991 21.5024 18.1779 20.4987 18.1779C19.4951 18.1779 18.682 18.991 18.682 19.9946V21.8156H15.0443V19.9946C15.0443 16.9816 17.4857 14.5402 20.4987 14.5402ZM33.2226 19.9924C33.2226 12.9647 27.5268 7.26887 20.4991 7.26887L20.4949 7.27099C13.4672 7.27099 7.77134 12.9668 7.77134 19.9945V21.8155H11.4048V19.9987C11.4048 14.9762 15.4766 10.9066 20.497 10.9066C25.5195 10.9066 29.5891 14.9784 29.5891 19.9987V21.8155H33.2226V19.9924ZM0.5041 25.4516H5.95854C8.9695 25.4516 11.413 27.8951 11.413 30.9061C11.413 33.917 8.9695 36.3605 5.95854 36.3605C2.94759 36.3605 0.5041 33.917 0.5041 30.9061V25.4516Z" fill="url(#paint0_linear_10031_9368)"/>
<defs>
<linearGradient id="paint0_linear_10031_9368" x1="2.33911" y1="12.2717" x2="35.9519" y2="41.5771" gradientUnits="userSpaceOnUse">
<stop stop-color="#D3222A"/>
<stop offset="0.64" stop-color="#C247FA"/>
<stop offset="1" stop-color="#4D1DD5"/>
</linearGradient>
</defs>
</svg>
