<svg width="39" height="34" viewBox="0 0 39 34" fill="none" xmlns="http://www.w3.org/2000/svg">
<path fill-rule="evenodd" clip-rule="evenodd" d="M39 28.911V17.8973C39 8.01247 30.27 0 19.5 0C8.73 0 0 8.01247 0 17.8973V28.911C0 31.4441 2.24 33.5 5 33.5C7.76 33.5 10 31.4441 10 28.911V27.0753C10 24.5422 7.76 22.4863 5 22.4863H3.5V17.8973C3.5 9.78384 10.66 3.21233 19.5 3.21233C28.34 3.21233 35.5 9.78384 35.5 17.8973V22.4863H34C31.24 22.4863 29 24.5422 29 27.0753V28.911C29 31.4441 31.24 33.5 34 33.5C36.76 33.5 39 31.4441 39 28.911ZM32.5 17.8973V18.8151H29V17.8973C29 13.0788 24.75 9.17808 19.5 9.17808C14.25 9.17808 10 13.0788 10 17.8973V18.8151H6.5V17.8973C6.5 11.3074 12.32 5.96575 19.5 5.96575C26.68 5.96575 32.5 11.3074 32.5 17.8973ZM19.5 13.7671L16.73 19.274L10.5 22.0274L16.73 24.7808L19.5 30.2877L22.27 24.7808L28.5 22.0274L22.27 19.274L19.5 13.7671Z" fill="url(#paint0_linear_10079_4854)"/>
<defs>
<linearGradient id="paint0_linear_10079_4854" x1="1.7931" y1="11.3062" x2="32.9522" y2="40.0549" gradientUnits="userSpaceOnUse">
<stop stop-color="#D3222A"/>
<stop offset="0.64" stop-color="#C247FA"/>
<stop offset="1" stop-color="#4D1DD5"/>
</linearGradient>
</defs>
</svg>
